<svg xmlns="http://www.w3.org/2000/svg" viewBox="0 0 1200 620" role="img" aria-label="中国历史长河">
  <defs>
    <linearGradient id="bg" x1="0" y1="0" x2="1" y2="1">
      <stop offset="0" stop-color="#17110b"/>
      <stop offset="0.45" stop-color="#15342f"/>
      <stop offset="1" stop-color="#2a1712"/>
    </linearGradient>
    <linearGradient id="river" x1="0" y1="0" x2="1" y2="0">
      <stop offset="0" stop-color="#d3a552" stop-opacity="0.55"/>
      <stop offset="0.5" stop-color="#6fd7ca" stop-opacity="0.7"/>
      <stop offset="1" stop-color="#b34332" stop-opacity="0.45"/>
    </linearGradient>
    <filter id="soft">
      <feGaussianBlur stdDeviation="12"/>
    </filter>
  </defs>
  <rect width="1200" height="620" fill="url(#bg)"/>
  <path d="M-40 350 C170 270 290 410 470 322 C655 232 750 410 955 315 C1070 262 1140 268 1250 300 L1250 520 C1080 470 990 500 820 480 C625 458 470 530 290 475 C130 426 60 455 -40 505 Z" fill="url(#river)" opacity="0.72"/>
  <path d="M80 400 C260 335 340 430 520 360 C730 278 810 408 1030 340" fill="none" stroke="#f4d284" stroke-width="8" opacity="0.25" filter="url(#soft)"/>
  <g opacity="0.18" stroke="#f9e6b8" stroke-width="2">
    <path d="M120 0v620"/>
    <path d="M300 0v620"/>
    <path d="M480 0v620"/>
    <path d="M660 0v620"/>
    <path d="M840 0v620"/>
    <path d="M1020 0v620"/>
  </g>
  <circle cx="185" cy="310" r="10" fill="#f3c366"/>
  <circle cx="480" cy="330" r="10" fill="#7ad9c8"/>
  <circle cx="820" cy="300" r="10" fill="#f3c366"/>
  <circle cx="1000" cy="345" r="10" fill="#d95a45"/>
  <text x="72" y="112" fill="#fff4d8" font-size="58" font-family="serif" font-weight="700">中国历史长河</text>
  <text x="76" y="166" fill="#bfe6dc" font-size="24" font-family="sans-serif">文明、制度、交流与变革</text>
</svg>
